<svg width="45" height="54" viewBox="0 0 45 54" fill="none" xmlns="http://www.w3.org/2000/svg">
<path d="M8.94587 53V45.7273H11.4885C11.9951 45.7273 12.413 45.8149 12.742 45.9901C13.0711 46.1629 13.3161 46.3961 13.4771 46.6896C13.6381 46.9808 13.7186 47.304 13.7186 47.6591C13.7186 47.9716 13.663 48.2296 13.5517 48.4332C13.4428 48.6368 13.2984 48.7978 13.1185 48.9162C12.9409 49.0346 12.748 49.1222 12.5396 49.179V49.25C12.7622 49.2642 12.9859 49.3423 13.2108 49.4844C13.4357 49.6264 13.6239 49.83 13.7754 50.0952C13.9269 50.3603 14.0027 50.6847 14.0027 51.0682C14.0027 51.4328 13.9198 51.7607 13.7541 52.0518C13.5884 52.343 13.3268 52.5739 12.9693 52.7443C12.6118 52.9148 12.1466 53 11.5737 53H8.94587ZM9.82655 52.2188H11.5737C12.149 52.2188 12.5574 52.1075 12.7989 51.8849C13.0427 51.66 13.1646 51.3878 13.1646 51.0682C13.1646 50.822 13.1019 50.5947 12.9764 50.3864C12.8509 50.1757 12.6722 50.0076 12.4402 49.8821C12.2082 49.7543 11.9336 49.6903 11.6163 49.6903H9.82655V52.2188ZM9.82655 48.9233H11.4601C11.7252 48.9233 11.9643 48.8712 12.1774 48.767C12.3928 48.6629 12.5633 48.5161 12.6888 48.3267C12.8166 48.1373 12.8805 47.9148 12.8805 47.6591C12.8805 47.3395 12.7693 47.0684 12.5467 46.8459C12.3242 46.621 11.9714 46.5085 11.4885 46.5085H9.82655V48.9233ZM17.552 53.1136C17.0596 53.1136 16.6276 52.9964 16.2559 52.7621C15.8866 52.5277 15.5977 52.1998 15.3894 51.7784C15.1834 51.357 15.0805 50.8646 15.0805 50.3011C15.0805 49.733 15.1834 49.237 15.3894 48.8132C15.5977 48.3894 15.8866 48.0604 16.2559 47.826C16.6276 47.5916 17.0596 47.4744 17.552 47.4744C18.0445 47.4744 18.4753 47.5916 18.8447 47.826C19.2163 48.0604 19.5052 48.3894 19.7111 48.8132C19.9195 49.237 20.0236 49.733 20.0236 50.3011C20.0236 50.8646 19.9195 51.357 19.7111 51.7784C19.5052 52.1998 19.2163 52.5277 18.8447 52.7621C18.4753 52.9964 18.0445 53.1136 17.552 53.1136ZM17.552 52.3608C17.9261 52.3608 18.2339 52.2649 18.4753 52.0732C18.7168 51.8814 18.8956 51.6293 19.0116 51.3168C19.1276 51.0043 19.1856 50.6657 19.1856 50.3011C19.1856 49.9366 19.1276 49.5968 19.0116 49.282C18.8956 48.9671 18.7168 48.7126 18.4753 48.5185C18.2339 48.3243 17.9261 48.2273 17.552 48.2273C17.178 48.2273 16.8702 48.3243 16.6288 48.5185C16.3873 48.7126 16.2085 48.9671 16.0925 49.282C15.9765 49.5968 15.9185 49.9366 15.9185 50.3011C15.9185 50.6657 15.9765 51.0043 16.0925 51.3168C16.2085 51.6293 16.3873 51.8814 16.6288 52.0732C16.8702 52.2649 17.178 52.3608 17.552 52.3608ZM22.141 49.7188V53H21.3029V47.5455H22.1126V48.3977H22.1836C22.3115 48.1207 22.5056 47.8982 22.766 47.7301C23.0264 47.5597 23.3626 47.4744 23.7745 47.4744C24.1438 47.4744 24.467 47.5502 24.744 47.7017C25.021 47.8509 25.2364 48.0781 25.3903 48.3835C25.5442 48.6866 25.6211 49.0701 25.6211 49.5341V53H24.783V49.5909C24.783 49.1624 24.6718 48.8286 24.4492 48.5895C24.2267 48.348 23.9213 48.2273 23.533 48.2273C23.2655 48.2273 23.0264 48.2853 22.8157 48.4013C22.6074 48.5173 22.4428 48.6866 22.3221 48.9091C22.2014 49.1316 22.141 49.4015 22.141 49.7188ZM30.59 50.7699V47.5455H31.4281V53H30.59V52.0767H30.5332C30.4054 52.3537 30.2065 52.5893 29.9366 52.7834C29.6667 52.9751 29.3258 53.071 28.9139 53.071C28.573 53.071 28.27 52.9964 28.0048 52.8473C27.7397 52.6958 27.5313 52.4685 27.3798 52.1655C27.2283 51.8601 27.1525 51.4754 27.1525 51.0114V47.5455H27.9906V50.9545C27.9906 51.3523 28.1019 51.6695 28.3244 51.9062C28.5493 52.143 28.8358 52.2614 29.1838 52.2614C29.3921 52.2614 29.604 52.2081 29.8194 52.1016C30.0373 51.995 30.2195 51.8317 30.3663 51.6115C30.5155 51.3913 30.59 51.1108 30.59 50.7699ZM36.8267 48.767L36.0739 48.9801C36.0265 48.8546 35.9567 48.7327 35.8644 48.6143C35.7744 48.4936 35.6513 48.3942 35.4951 48.3161C35.3388 48.2379 35.1388 48.1989 34.8949 48.1989C34.5611 48.1989 34.2829 48.2758 34.0604 48.4297C33.8402 48.5812 33.7301 48.7741 33.7301 49.0085C33.7301 49.2169 33.8059 49.3814 33.9574 49.5021C34.1089 49.6229 34.3457 49.7235 34.6676 49.804L35.4773 50.0028C35.965 50.1212 36.3284 50.3023 36.5675 50.5462C36.8066 50.7876 36.9262 51.099 36.9262 51.4801C36.9262 51.7926 36.8362 52.072 36.6563 52.3182C36.4787 52.5644 36.2301 52.7585 35.9105 52.9006C35.5909 53.0426 35.2192 53.1136 34.7955 53.1136C34.2391 53.1136 33.7787 52.9929 33.4141 52.7514C33.0495 52.5099 32.8187 52.1572 32.7216 51.6932L33.5171 51.4943C33.5928 51.7879 33.7361 52.008 33.9468 52.1548C34.1598 52.3016 34.438 52.375 34.7813 52.375C35.1719 52.375 35.482 52.2921 35.7117 52.1264C35.9437 51.9583 36.0597 51.7571 36.0597 51.5227C36.0597 51.3333 35.9934 51.1747 35.8608 51.0469C35.7282 50.9167 35.5246 50.8196 35.25 50.7557L34.3409 50.5426C33.8414 50.4242 33.4745 50.2408 33.2401 49.9922C33.0081 49.7412 32.8921 49.4276 32.8921 49.0511C32.8921 48.7434 32.9785 48.4711 33.1513 48.2344C33.3265 47.9976 33.5644 47.8118 33.8651 47.6768C34.1681 47.5419 34.5114 47.4744 34.8949 47.4744C35.4347 47.4744 35.8585 47.5928 36.1662 47.8295C36.4763 48.0663 36.6965 48.3788 36.8267 48.767Z" fill="#BC6C25"/>
<path d="M8.94587 53H8.44587V53.5H8.94587V53ZM8.94587 45.7273V45.2273H8.44587V45.7273H8.94587ZM12.742 45.9901L12.5071 46.4314L12.5096 46.4327L12.742 45.9901ZM13.4771 46.6896L13.0387 46.93L13.0395 46.9315L13.4771 46.6896ZM13.5517 48.4332L13.1129 48.1934L13.1108 48.1974L13.5517 48.4332ZM13.1185 48.9162L12.8436 48.4985L12.8411 48.5002L13.1185 48.9162ZM12.5396 49.179L12.4081 48.6966L12.0396 48.7971V49.179H12.5396ZM12.5396 49.25H12.0396V49.7191L12.5078 49.749L12.5396 49.25ZM13.2108 49.4844L12.9438 49.9071L12.9438 49.9071L13.2108 49.4844ZM13.7541 52.0518L14.1887 52.2992L14.1887 52.2992L13.7541 52.0518ZM12.9693 52.7443L12.7541 52.293L12.7541 52.293L12.9693 52.7443ZM9.82655 52.2188H9.32655V52.7188H9.82655V52.2188ZM12.7989 51.8849L13.1377 52.2526L13.1378 52.2525L12.7989 51.8849ZM12.9764 50.3864L12.5468 50.6422L12.5481 50.6443L12.9764 50.3864ZM12.4402 49.8821L12.1989 50.32L12.2023 50.3219L12.4402 49.8821ZM9.82655 49.6903V49.1903H9.32655V49.6903H9.82655ZM9.82655 48.9233H9.32655V49.4233H9.82655V48.9233ZM12.1774 48.767L11.9597 48.3169L11.9578 48.3179L12.1774 48.767ZM12.6888 48.3267L12.2743 48.047L12.2719 48.0506L12.6888 48.3267ZM12.5467 46.8459L12.1913 47.1976L12.1932 47.1994L12.5467 46.8459ZM9.82655 46.5085V46.0085H9.32655V46.5085H9.82655ZM9.44587 53V45.7273H8.44587V53H9.44587ZM8.94587 46.2273H11.4885V45.2273H8.94587V46.2273ZM11.4885 46.2273C11.9412 46.2273 12.2716 46.3061 12.5071 46.4314L12.977 45.5487C12.5543 45.3237 12.049 45.2273 11.4885 45.2273V46.2273ZM12.5096 46.4327C12.7615 46.5651 12.9301 46.732 13.0387 46.93L13.9155 46.4492C13.7021 46.0601 13.3807 45.7607 12.9745 45.5474L12.5096 46.4327ZM13.0395 46.9315C13.1568 47.1437 13.2186 47.3827 13.2186 47.6591H14.2186C14.2186 47.2252 14.1194 46.8179 13.9147 46.4477L13.0395 46.9315ZM13.2186 47.6591C13.2186 47.9157 13.1725 48.0845 13.1129 48.1935L13.9904 48.673C14.1534 48.3748 14.2186 48.0275 14.2186 47.6591H13.2186ZM13.1108 48.1974C13.0383 48.3329 12.9489 48.4292 12.8436 48.4985L13.3933 49.3339C13.6478 49.1664 13.8473 48.9407 13.9926 48.6691L13.1108 48.1974ZM12.8411 48.5002C12.7088 48.5884 12.5652 48.6537 12.4081 48.6966L12.6712 49.6614C12.9307 49.5906 13.173 49.4808 13.3958 49.3322L12.8411 48.5002ZM12.0396 49.179V49.25H13.0396V49.179H12.0396ZM12.5078 49.749C12.6321 49.7569 12.776 49.8012 12.9438 49.9071L13.4778 49.0616C13.1957 48.8835 12.8923 48.7715 12.5715 48.751L12.5078 49.749ZM12.9438 49.9071C13.0899 49.9994 13.2243 50.1385 13.3413 50.3432L14.2095 49.8471C14.0235 49.5215 13.7815 49.2534 13.4778 49.0616L12.9438 49.9071ZM13.3413 50.3432C13.4399 50.5158 13.5027 50.7497 13.5027 51.0682H14.5027C14.5027 50.6196 14.4139 50.2048 14.2095 49.8471L13.3413 50.3432ZM13.5027 51.0682C13.5027 51.3539 13.4386 51.5953 13.3196 51.8045L14.1887 52.2992C14.401 51.926 14.5027 51.5116 14.5027 51.0682H13.5027ZM13.3196 51.8045C13.2131 51.9917 13.0365 52.1583 12.7541 52.293L13.1845 53.1956C13.617 52.9894 13.9637 52.6944 14.1887 52.2992L13.3196 51.8045ZM12.7541 52.293C12.487 52.4204 12.1029 52.5 11.5737 52.5V53.5C12.1903 53.5 12.7367 53.4092 13.1845 53.1956L12.7541 52.293ZM11.5737 52.5H8.94587V53.5H11.5737V52.5ZM9.82655 52.7188H11.5737V51.7188H9.82655V52.7188ZM11.5737 52.7188C12.1883 52.7188 12.7557 52.6047 13.1377 52.2526L12.46 51.5173C12.3591 51.6103 12.1097 51.7188 11.5737 51.7188V52.7188ZM13.1378 52.2525C13.4799 51.937 13.6646 51.5333 13.6646 51.0682H12.6646C12.6646 51.2423 12.6055 51.3831 12.4599 51.5174L13.1378 52.2525ZM13.6646 51.0682C13.6646 50.7323 13.5777 50.4156 13.4047 50.1284L12.5481 50.6443C12.6261 50.7738 12.6646 50.9117 12.6646 51.0682H13.6646ZM13.406 50.1305C13.2309 49.8365 12.9832 49.6073 12.678 49.4423L12.2023 50.3219C12.3612 50.4078 12.471 50.5148 12.5468 50.6422L13.406 50.1305ZM12.6815 49.4442C12.3623 49.2683 12.0013 49.1903 11.6163 49.1903V50.1903C11.8658 50.1903 12.0541 50.2402 12.1989 50.32L12.6815 49.4442ZM11.6163 49.1903H9.82655V50.1903H11.6163V49.1903ZM9.32655 49.6903V52.2188H10.3265V49.6903H9.32655ZM9.82655 49.4233H11.4601V48.4233H9.82655V49.4233ZM11.4601 49.4233C11.7923 49.4233 12.1079 49.3576 12.397 49.2162L11.9578 48.3179C11.8208 48.3848 11.6582 48.4233 11.4601 48.4233V49.4233ZM12.3951 49.2172C12.6868 49.0761 12.9279 48.8711 13.1056 48.6029L12.2719 48.0506C12.1987 48.1611 12.0989 48.2496 11.9598 48.3169L12.3951 49.2172ZM13.1032 48.6064C13.2933 48.3248 13.3805 48.0022 13.3805 47.6591H12.3805C12.3805 47.8274 12.3399 47.9498 12.2743 48.047L13.1032 48.6064ZM13.3805 47.6591C13.3805 47.2092 13.2182 46.8103 12.9003 46.4923L12.1932 47.1994C12.3203 47.3266 12.3805 47.4698 12.3805 47.6591H13.3805ZM12.9021 46.4942C12.5462 46.1345 12.0359 46.0085 11.4885 46.0085V47.0085C11.907 47.0085 12.1021 47.1074 12.1913 47.1976L12.9021 46.4942ZM11.4885 46.0085H9.82655V47.0085H11.4885V46.0085ZM9.32655 46.5085V48.9233H10.3265V46.5085H9.32655ZM16.2559 52.7621L15.988 53.1842L15.9892 53.185L16.2559 52.7621ZM15.3894 51.7784L14.9402 51.998L14.9412 52L15.3894 51.7784ZM15.3894 48.8132L14.9407 48.5926L14.9397 48.5946L15.3894 48.8132ZM16.2559 47.826L15.9892 47.4031L15.988 47.4038L16.2559 47.826ZM18.8447 47.826L18.5767 48.2482L18.578 48.2489L18.8447 47.826ZM19.7111 48.8132L19.2614 49.0318L19.2624 49.0338L19.7111 48.8132ZM19.7111 51.7784L19.2629 51.5568L19.2619 51.5588L19.7111 51.7784ZM18.8447 52.7621L18.578 52.3391L18.5767 52.3399L18.8447 52.7621ZM18.4753 52.0732L18.1644 51.6816L18.1644 51.6816L18.4753 52.0732ZM19.0116 51.3168L19.4803 51.4908L19.4803 51.4908L19.0116 51.3168ZM19.0116 49.282L19.4807 49.1091L19.4807 49.1091L19.0116 49.282ZM18.4753 48.5185L18.7886 48.1288L18.7886 48.1288L18.4753 48.5185ZM16.6288 48.5185L16.3155 48.1288L16.3155 48.1288L16.6288 48.5185ZM16.0925 49.282L15.6234 49.1091L15.6234 49.1091L16.0925 49.282ZM16.0925 51.3168L15.6238 51.4908L15.6238 51.4908L16.0925 51.3168ZM16.6288 52.0732L16.9397 51.6816L16.9397 51.6816L16.6288 52.0732ZM17.552 52.6136C17.1423 52.6136 16.805 52.5173 16.5226 52.3391L15.9892 53.185C16.4501 53.4756 16.977 53.6136 17.552 53.6136V52.6136ZM16.5238 52.3399C16.2376 52.1583 16.0085 51.9025 15.8376 51.5568L14.9412 52C15.187 52.4971 15.5355 52.8971 15.988 53.1842L16.5238 52.3399ZM15.8386 51.5588C15.6721 51.2182 15.5805 50.8036 15.5805 50.3011H14.5805C14.5805 50.9256 14.6947 51.4958 14.9402 51.998L15.8386 51.5588ZM15.5805 50.3011C15.5805 49.7933 15.6724 49.3748 15.8391 49.0318L14.9397 48.5946C14.6945 49.0991 14.5805 49.6726 14.5805 50.3011H15.5805ZM15.8381 49.0338C16.0092 48.6858 16.2383 48.4293 16.5238 48.2482L15.988 47.4038C15.5348 47.6914 15.1863 48.0931 14.9407 48.5926L15.8381 49.0338ZM16.5226 48.2489C16.805 48.0708 17.1423 47.9744 17.552 47.9744V46.9744C16.977 46.9744 16.4501 47.1124 15.9892 47.4031L16.5226 48.2489ZM17.552 47.9744C17.9619 47.9744 18.2973 48.0708 18.5767 48.2482L19.1126 47.4038C18.6534 47.1124 18.1271 46.9744 17.552 46.9744V47.9744ZM18.578 48.2489C18.8651 48.43 19.0932 48.6855 19.2614 49.0318L20.1608 48.5946C19.9172 48.0933 19.5676 47.6908 19.1114 47.4031L18.578 48.2489ZM19.2624 49.0338C19.4308 49.3764 19.5236 49.7941 19.5236 50.3011H20.5236C20.5236 49.6718 20.4081 49.0976 20.1598 48.5926L19.2624 49.0338ZM19.5236 50.3011C19.5236 50.8028 19.4311 51.2167 19.2629 51.5568L20.1594 52C20.4079 51.4973 20.5236 50.9263 20.5236 50.3011H19.5236ZM19.2619 51.5588C19.0939 51.9027 18.8658 52.1577 18.578 52.3391L19.1114 53.185C19.5669 52.8977 19.9165 52.4969 20.1604 51.998L19.2619 51.5588ZM18.5767 52.3399C18.2973 52.5172 17.9619 52.6136 17.552 52.6136V53.6136C18.1271 53.6136 18.6534 53.4757 19.1126 53.1842L18.5767 52.3399ZM17.552 52.8608C18.0142 52.8608 18.4387 52.7407 18.7863 52.4647L18.1644 51.6816C18.029 51.7891 17.838 51.8608 17.552 51.8608V52.8608ZM18.7863 52.4647C19.105 52.2116 19.3352 51.8816 19.4803 51.4908L18.5428 51.1428C18.4559 51.3769 18.3286 51.5512 18.1644 51.6816L18.7863 52.4647ZM19.4803 51.4908C19.6188 51.1176 19.6856 50.7195 19.6856 50.3011H18.6856C18.6856 50.6119 18.6363 50.8909 18.5428 51.1428L19.4803 51.4908ZM19.6856 50.3011C19.6856 49.8827 19.6188 49.4839 19.4807 49.1091L18.5424 49.4548C18.6363 49.7097 18.6856 49.9904 18.6856 50.3011H19.6856ZM19.4807 49.1091C19.3361 48.7165 19.1066 48.3844 18.7886 48.1288L18.1621 48.9082C18.327 49.0408 18.455 49.2177 18.5424 49.4548L19.4807 49.1091ZM18.7886 48.1288C18.441 47.8493 18.0156 47.7273 17.552 47.7273V48.7273C17.8366 48.7273 18.0267 48.7994 18.1621 48.9082L18.7886 48.1288ZM17.552 47.7273C17.0885 47.7273 16.6631 47.8493 16.3155 48.1288L16.942 48.9082C17.0774 48.7994 17.2675 48.7273 17.552 48.7273V47.7273ZM16.3155 48.1288C15.9975 48.3844 15.768 48.7165 15.6234 49.1091L16.5617 49.4548C16.6491 49.2177 16.7771 49.0408 16.942 48.9082L16.3155 48.1288ZM15.6234 49.1091C15.4853 49.4839 15.4185 49.8827 15.4185 50.3011H16.4185C16.4185 49.9904 16.4678 49.7097 16.5617 49.4548L15.6234 49.1091ZM15.4185 50.3011C15.4185 50.7195 15.4853 51.1176 15.6238 51.4908L16.5613 51.1428C16.4678 50.8909 16.4185 50.6119 16.4185 50.3011H15.4185ZM15.6238 51.4908C15.7689 51.8816 15.9991 52.2116 16.3178 52.4647L16.9397 51.6816C16.7755 51.5512 16.6482 51.3769 16.5613 51.1428L15.6238 51.4908ZM16.3178 52.4647C16.6654 52.7407 17.0899 52.8608 17.552 52.8608V51.8608C17.2661 51.8608 17.0751 51.7891 16.9397 51.6816L16.3178 52.4647ZM22.141 53V53.5H22.641V53H22.141ZM21.3029 53H20.8029V53.5H21.3029V53ZM21.3029 47.5455V47.0455H20.8029V47.5455H21.3029ZM22.1126 47.5455H22.6126V47.0455H22.1126V47.5455ZM22.1126 48.3977H21.6126V48.8977H22.1126V48.3977ZM22.1836 48.3977V48.8977H22.5035L22.6376 48.6073L22.1836 48.3977ZM22.766 47.7301L23.0372 48.1502L23.0398 48.1485L22.766 47.7301ZM24.744 47.7017L24.504 48.1404L24.5069 48.1419L24.744 47.7017ZM25.3903 48.3835L24.9438 48.6085L24.9445 48.6099L25.3903 48.3835ZM25.6211 53V53.5H26.1211V53H25.6211ZM24.783 53H24.283V53.5H24.783V53ZM24.4492 48.5895L24.0816 48.9283L24.0832 48.9301L24.4492 48.5895ZM22.8157 48.4013L22.5746 47.9633L22.5725 47.9644L22.8157 48.4013ZM22.3221 48.9091L21.8826 48.6706L21.8826 48.6706L22.3221 48.9091ZM21.641 49.7188V53H22.641V49.7188H21.641ZM22.141 52.5H21.3029V53.5H22.141V52.5ZM21.8029 53V47.5455H20.8029V53H21.8029ZM21.3029 48.0455H22.1126V47.0455H21.3029V48.0455ZM21.6126 47.5455V48.3977H22.6126V47.5455H21.6126ZM22.1126 48.8977H22.1836V47.8977H22.1126V48.8977ZM22.6376 48.6073C22.725 48.4178 22.8551 48.2677 23.0372 48.1502L22.4949 47.31C22.1561 47.5287 21.8979 47.8237 21.7296 48.1882L22.6376 48.6073ZM23.0398 48.1485C23.1964 48.046 23.429 47.9744 23.7745 47.9744V46.9744C23.2962 46.9744 22.8564 47.0733 22.4922 47.3118L23.0398 48.1485ZM23.7745 47.9744C24.0743 47.9744 24.3122 48.0354 24.504 48.1404L24.9839 47.263C24.6218 47.0649 24.2134 46.9744 23.7745 46.9744V47.9744ZM24.5069 48.1419C24.6858 48.2382 24.8318 48.3863 24.9438 48.6085L25.8368 48.1585C25.641 47.77 25.3562 47.4635 24.981 47.2615L24.5069 48.1419ZM24.9445 48.6099C25.0522 48.822 25.1211 49.1215 25.1211 49.5341H26.1211C26.1211 49.0187 26.0362 48.5511 25.8361 48.1571L24.9445 48.6099ZM25.1211 49.5341V53H26.1211V49.5341H25.1211ZM25.6211 52.5H24.783V53.5H25.6211V52.5ZM25.283 53V49.5909H24.283V53H25.283ZM25.283 49.5909C25.283 49.0765 25.148 48.6064 24.8153 48.2488L24.0832 48.9301C24.1955 49.0508 24.283 49.2483 24.283 49.5909H25.283ZM24.8169 48.2506C24.4824 47.8877 24.0332 47.7273 23.533 47.7273V48.7273C23.8094 48.7273 23.971 48.8083 24.0816 48.9283L24.8169 48.2506ZM23.533 47.7273C23.1909 47.7273 22.8672 47.8022 22.5746 47.9633L23.0569 48.8393C23.1857 48.7684 23.3402 48.7273 23.533 48.7273V47.7273ZM22.5725 47.9644C22.276 48.1295 22.0457 48.3701 21.8826 48.6706L22.7616 49.1475C22.84 49.003 22.9387 48.9051 23.059 48.8381L22.5725 47.9644ZM21.8826 48.6706C21.7134 48.9826 21.641 49.3389 21.641 49.7188H22.641C22.641 49.4641 22.6894 49.2806 22.7616 49.1475L21.8826 48.6706ZM30.59 47.5455V47.0455H30.09V47.5455H30.59ZM31.4281 47.5455H31.9281V47.0455H31.4281V47.5455ZM31.4281 53V53.5H31.9281V53H31.4281ZM30.59 53H30.09V53.5H30.59V53ZM30.59 52.0767H31.09V51.5767H30.59V52.0767ZM30.5332 52.0767V51.5767H30.2133L30.0792 51.8672L30.5332 52.0767ZM29.9366 52.7834L30.2262 53.191L30.2286 53.1893L29.9366 52.7834ZM28.0048 52.8473L27.7567 53.2814L27.7597 53.2831L28.0048 52.8473ZM27.3798 52.1655L26.9319 52.3877L26.9326 52.3891L27.3798 52.1655ZM27.1525 47.5455V47.0455H26.6525V47.5455H27.1525ZM27.9906 47.5455H28.4906V47.0455H27.9906V47.5455ZM28.3244 51.9062L27.9601 52.2487L27.9619 52.2506L28.3244 51.9062ZM29.8194 52.1016L29.5998 51.6524L29.5978 51.6534L29.8194 52.1016ZM30.3663 51.6115L29.9524 51.3311L29.9503 51.3342L30.3663 51.6115ZM31.09 50.7699V47.5455H30.09V50.7699H31.09ZM30.59 48.0455H31.4281V47.0455H30.59V48.0455ZM30.9281 47.5455V53H31.9281V47.5455H30.9281ZM31.4281 52.5H30.59V53.5H31.4281V52.5ZM31.09 53V52.0767H30.09V53H31.09ZM30.59 51.5767H30.5332V52.5767H30.59V51.5767ZM30.0792 51.8672C29.9908 52.0589 29.851 52.2291 29.6447 52.3775L30.2286 53.1893C30.5621 52.9494 30.82 52.6485 30.9872 52.2862L30.0792 51.8672ZM29.647 52.3758C29.4805 52.4941 29.2477 52.571 28.9139 52.571V53.571C29.404 53.571 29.853 53.4561 30.2262 53.191L29.647 52.3758ZM28.9139 52.571C28.6483 52.571 28.4316 52.5137 28.2499 52.4115L27.7597 53.2831C28.1084 53.4792 28.4977 53.571 28.9139 53.571V52.571ZM28.2529 52.4132C28.0827 52.3159 27.9394 52.1667 27.827 51.9419L26.9326 52.3891C27.1232 52.7704 27.3966 53.0756 27.7567 53.2814L28.2529 52.4132ZM27.8277 51.9433C27.7205 51.7272 27.6525 51.4247 27.6525 51.0114H26.6525C26.6525 51.5261 26.7361 51.9929 26.9319 52.3877L27.8277 51.9433ZM27.6525 51.0114V47.5455H26.6525V51.0114H27.6525ZM27.1525 48.0455H27.9906V47.0455H27.1525V48.0455ZM27.4906 47.5455V50.9545H28.4906V47.5455H27.4906ZM27.4906 50.9545C27.4906 51.4495 27.6318 51.8994 27.9601 52.2487L28.6887 51.5638C28.572 51.4396 28.4906 51.2551 28.4906 50.9545H27.4906ZM27.9619 52.2506C28.2879 52.5938 28.7088 52.7614 29.1838 52.7614V51.7614C28.9628 51.7614 28.8107 51.6922 28.6869 51.5619L27.9619 52.2506ZM29.1838 52.7614C29.48 52.7614 29.7673 52.6851 30.0411 52.5498L29.5978 51.6534C29.4407 51.7311 29.3042 51.7614 29.1838 51.7614V52.7614ZM30.0391 52.5507C30.3436 52.4018 30.5911 52.1757 30.7823 51.8889L29.9503 51.3342C29.848 51.4876 29.7309 51.5883 29.5998 51.6524L30.0391 52.5507ZM30.7803 51.8919C30.9994 51.5685 31.09 51.1827 31.09 50.7699H30.09C30.09 51.0389 30.0315 51.2142 29.9524 51.3311L30.7803 51.8919ZM36.8267 48.767L36.9629 49.2481L37.4675 49.1053L37.3008 48.6081L36.8267 48.767ZM36.0739 48.9801L35.6061 49.1566L35.7682 49.5863L36.21 49.4612L36.0739 48.9801ZM35.8644 48.6143L35.4633 48.9132L35.4701 48.9219L35.8644 48.6143ZM35.4951 48.3161L35.7187 47.8688L35.7187 47.8688L35.4951 48.3161ZM34.0604 48.4297L34.3438 48.8416L34.3448 48.8409L34.0604 48.4297ZM33.9574 49.5021L33.6458 49.8932L33.6458 49.8932L33.9574 49.5021ZM34.6676 49.804L34.5464 50.2891L34.5484 50.2895L34.6676 49.804ZM35.4773 50.0028L35.358 50.4884L35.3594 50.4887L35.4773 50.0028ZM36.5675 50.5462L36.2105 50.8962L36.2122 50.898L36.5675 50.5462ZM36.6563 52.3182L36.2526 52.0232L36.2507 52.0257L36.6563 52.3182ZM33.4141 52.7514L33.6902 52.3346L33.6902 52.3346L33.4141 52.7514ZM32.7216 51.6932L32.6003 51.2081L32.1337 51.3248L32.2322 51.7956L32.7216 51.6932ZM33.5171 51.4943L34.0012 51.3694L33.8772 50.8889L33.3958 51.0092L33.5171 51.4943ZM33.9468 52.1548L33.6609 52.5651L33.6631 52.5666L33.9468 52.1548ZM35.7117 52.1264L36.0043 52.5319L36.005 52.5313L35.7117 52.1264ZM35.8608 51.0469L35.5104 51.4036L35.5138 51.4068L35.8608 51.0469ZM35.25 50.7557L35.1359 51.2425L35.1367 51.2427L35.25 50.7557ZM34.3409 50.5426L34.2256 51.0291L34.2268 51.0294L34.3409 50.5426ZM33.2401 49.9922L32.8729 50.3316L32.8763 50.3352L33.2401 49.9922ZM33.1513 48.2344L32.7494 47.9369L32.7475 47.9396L33.1513 48.2344ZM33.8651 47.6768L33.6617 47.2201L33.6603 47.2207L33.8651 47.6768ZM36.1662 47.8295L35.8614 48.2259L35.8628 48.227L36.1662 47.8295ZM36.6906 48.2859L35.9377 48.499L36.21 49.4612L36.9629 49.2481L36.6906 48.2859ZM36.5417 48.8036C36.4746 48.6257 36.3783 48.4602 36.2586 48.3068L35.4701 48.9219C35.5351 49.0052 35.5785 49.0835 35.6061 49.1566L36.5417 48.8036ZM36.2653 48.3156C36.1217 48.1229 35.9336 47.9763 35.7187 47.8688L35.2714 48.7633C35.369 48.812 35.4271 48.8643 35.4634 48.9131L36.2653 48.3156ZM35.7187 47.8688C35.4711 47.745 35.1875 47.6989 34.8949 47.6989V48.6989C35.09 48.6989 35.2065 48.7308 35.2714 48.7633L35.7187 47.8688ZM34.8949 47.6989C34.4835 47.6989 34.0999 47.7945 33.776 48.0184L34.3448 48.8409C34.466 48.7571 34.6387 48.6989 34.8949 48.6989V47.6989ZM33.7769 48.0178C33.4433 48.2474 33.2301 48.5845 33.2301 49.0085H34.2301C34.2301 48.9638 34.2372 48.915 34.3438 48.8416L33.7769 48.0178ZM33.2301 49.0085C33.2301 49.3559 33.3653 49.6696 33.6458 49.8932L34.269 49.1111C34.2465 49.0931 34.2301 49.0778 34.2301 49.0085H33.2301ZM33.6458 49.8932C33.8797 50.0796 34.1976 50.2019 34.5464 50.289L34.7889 49.3189C34.4937 49.2451 34.3381 49.1662 34.269 49.1111L33.6458 49.8932ZM34.5484 50.2895L35.358 50.4884L35.5966 49.5173L34.7869 49.3184L34.5484 50.2895ZM35.3594 50.4887C35.7963 50.5948 36.0607 50.7434 36.2105 50.8962L36.9245 50.1961C36.5961 49.8612 36.1337 49.6476 35.5952 49.5169L35.3594 50.4887ZM36.2122 50.898C36.347 51.0341 36.4262 51.2132 36.4262 51.4801H37.4262C37.4262 50.9847 37.2662 50.5412 36.9228 50.1944L36.2122 50.898ZM36.4262 51.4801C36.4262 51.6894 36.3683 51.8648 36.2526 52.0232L37.06 52.6132C37.3041 52.2791 37.4262 51.8959 37.4262 51.4801H36.4262ZM36.2507 52.0257C36.1324 52.1898 35.9587 52.332 35.7075 52.4437L36.1136 53.3575C36.5016 53.185 36.8251 52.9389 37.0618 52.6106L36.2507 52.0257ZM35.7075 52.4437C35.4638 52.5519 35.1638 52.6136 34.7955 52.6136V53.6136C35.2747 53.6136 35.718 53.5333 36.1136 53.3575L35.7075 52.4437ZM34.7955 52.6136C34.3107 52.6136 33.9532 52.5088 33.6902 52.3346L33.138 53.1683C33.6041 53.477 34.1675 53.6136 34.7955 53.6136V52.6136ZM33.6902 52.3346C33.4451 52.1722 33.2836 51.9379 33.211 51.5908L32.2322 51.7956C32.3537 52.3765 32.6539 52.8477 33.138 53.1683L33.6902 52.3346ZM32.8429 52.1783L33.6383 51.9794L33.3958 51.0092L32.6003 51.2081L32.8429 52.1783ZM33.0329 51.6193C33.1329 52.0066 33.335 52.338 33.661 52.5651L34.2326 51.7446C34.1371 51.6781 34.0528 51.5692 34.0012 51.3694L33.0329 51.6193ZM33.6631 52.5666C33.9829 52.7869 34.3693 52.875 34.7813 52.875V51.875C34.5067 51.875 34.3367 51.8163 34.2304 51.7431L33.6631 52.5666ZM34.7813 52.875C35.238 52.875 35.6625 52.7785 36.0043 52.5319L35.4191 51.721C35.3015 51.8058 35.1058 51.875 34.7813 51.875V52.875ZM36.005 52.5313C36.3344 52.2927 36.5597 51.9537 36.5597 51.5227H35.5597C35.5597 51.5605 35.553 51.624 35.4183 51.7215L36.005 52.5313ZM36.5597 51.5227C36.5597 51.2019 36.4413 50.912 36.2079 50.687L35.5138 51.4068C35.5455 51.4374 35.5597 51.4648 35.5597 51.5227H36.5597ZM36.2112 50.6902C35.9875 50.4705 35.6846 50.3435 35.3634 50.2687L35.1367 51.2427C35.3647 51.2957 35.469 51.3629 35.5105 51.4036L36.2112 50.6902ZM35.3641 50.2689L34.455 50.0558L34.2268 51.0294L35.1359 51.2425L35.3641 50.2689ZM34.4562 50.0561C34.007 49.9496 33.7454 49.7993 33.6039 49.6492L32.8763 50.3352C33.2035 50.6822 33.6758 50.8988 34.2256 51.0291L34.4562 50.0561ZM33.6072 49.6528C33.4696 49.5039 33.3921 49.3156 33.3921 49.0511H32.3921C32.3921 49.5395 32.5466 49.9786 32.8729 50.3316L33.6072 49.6528ZM33.3921 49.0511C33.3921 48.8437 33.4481 48.6759 33.5551 48.5292L32.7475 47.9396C32.5089 48.2664 32.3921 48.643 32.3921 49.0511H33.3921ZM33.5532 48.5318C33.6715 48.3719 33.8379 48.2371 34.0698 48.133L33.6603 47.2207C33.2909 47.3865 32.9814 47.6233 32.7494 47.937L33.5532 48.5318ZM34.0685 48.1336C34.2983 48.0313 34.5706 47.9744 34.8949 47.9744V46.9744C34.4522 46.9744 34.038 47.0525 33.6617 47.2201L34.0685 48.1336ZM34.8949 47.9744C35.3666 47.9744 35.6694 48.0782 35.8614 48.2259L36.4711 47.4332C36.0475 47.1074 35.5027 46.9744 34.8949 46.9744V47.9744ZM35.8628 48.227C36.0895 48.4 36.2526 48.6276 36.3527 48.926L37.3008 48.6081C37.1405 48.13 36.8632 47.7326 36.4696 47.4321L35.8628 48.227Z" fill="#283618"/>
<path fill-rule="evenodd" clip-rule="evenodd" d="M21.6143 1V4.90295C22.9743 4.90295 24.4586 5.07696 25.975 5.45158C29.3209 6.2782 32.8229 8.08157 35.4893 11.1477C37.6346 13.6146 38.8766 15.9154 39.4536 18.5633C39.7418 19.8863 39.85 21.2961 39.85 22.8565H43.8143V18.5633C43.0934 13.9646 41.9658 10.9613 38.6607 7.63502C34.8731 3.82318 31.1286 1.78059 25.975 1H21.6143ZM21.6143 8.92012V13.0992H24.3893C26.4406 13.4204 27.7756 13.9822 29.1464 15.4409C30.4638 16.8428 30.8134 17.9188 31.1286 19.7342V22.8565H35.4893V19.7342C35.0976 16.553 34.3969 14.5396 31.9214 12.3186C29.6814 10.3088 27.6066 9.25894 24.3893 8.92012H21.6143ZM23.9929 22.8565H27.5607C27.5607 22.8565 27.7125 21.6524 27.5607 20.9051C27.357 19.9025 27.0512 19.3363 26.3714 18.5633C25.6407 17.7324 25.0699 17.2913 23.9929 17.0021C22.9158 16.7129 21.6143 17.0021 21.6143 17.0021L21.6143 21.2954C21.6143 21.2954 22.6401 21.2847 23.2 21.6857C23.7312 22.066 23.9929 22.8565 23.9929 22.8565ZM17.65 17.0021V23.2468L18.8393 25.1983L21.2179 26.7595H28.0608C27.9945 27.0544 27.9571 27.7226 27.9571 27.9304C27.9571 28.5588 28.0576 29.5905 28.75 30.2722C29.4424 30.9538 30.1494 31.0527 31.1286 31.0527C32.1077 31.0527 32.8148 30.9538 33.5071 30.2722C34.1995 29.5905 34.3 28.612 34.3 27.9304C34.3 27.697 34.2882 27.0386 34.2449 26.7595H42.2286V33.3945C42.2286 34.1751 42.1458 35.2649 41.4357 36.1266C40.4626 37.3075 38.4534 37.3007 37.5849 37.2977L37.4714 37.2975H25.1821C25.1821 35.7363 23.4785 34.1751 21.6143 34.1751C19.7501 34.1751 18.0464 35.7363 18.0464 37.2975H6.55C4.96429 37.2975 3.78651 37.1918 2.58571 36.1266C1.34696 35.0277 1 33.7848 1 32.2236V22.4662C1 21.2954 1.47508 20.0792 2.58571 18.9536C3.6034 17.9222 4.96429 17.0021 6.15357 17.0021H17.65ZM8.13578 28.3207C8.13578 27.3567 8.23634 26.6605 8.9287 25.9789C9.62106 25.2973 10.3281 25.1983 11.3072 25.1983C12.2864 25.1983 12.9934 25.2973 13.6858 25.9789C14.3781 26.6605 14.4786 27.3567 14.4786 28.3207C14.4786 29.2847 14.3781 29.9808 13.6858 30.6624C12.9934 31.3441 12.2864 31.443 11.3072 31.443C10.3281 31.443 9.62106 31.3441 8.9287 30.6624C8.23634 29.9808 8.13578 29.2847 8.13578 28.3207Z" fill="#BC6C25"/>
<path d="M21.6143 4.90295H21.1143V5.40295H21.6143V4.90295ZM21.6143 1V0.5H21.1143V1H21.6143ZM25.975 5.45158L26.0949 4.96618L26.0949 4.96618L25.975 5.45158ZM35.4893 11.1477L35.112 11.4758L35.112 11.4758L35.4893 11.1477ZM39.4536 18.5633L38.965 18.6697L38.965 18.6697L39.4536 18.5633ZM39.85 22.8565H39.35V23.3565H39.85V22.8565ZM43.8143 22.8565V23.3565H44.3143V22.8565H43.8143ZM43.8143 18.5633H44.3143V18.5243L44.3082 18.4859L43.8143 18.5633ZM38.6607 7.63502L38.306 7.98745L38.306 7.98745L38.6607 7.63502ZM25.975 1L26.0499 0.505639L26.0127 0.5H25.975V1ZM21.6143 13.0992H21.1143V13.5992H21.6143V13.0992ZM21.6143 8.92012V8.42012H21.1143V8.92012H21.6143ZM24.3893 13.0992L24.4667 12.6052L24.4282 12.5992H24.3893V13.0992ZM29.1464 15.4409L29.5108 15.0985L29.5108 15.0985L29.1464 15.4409ZM31.1286 19.7342H31.6286V19.6911L31.6212 19.6486L31.1286 19.7342ZM31.1286 22.8565H30.6286V23.3565H31.1286V22.8565ZM35.4893 22.8565V23.3565H35.9893V22.8565H35.4893ZM35.4893 19.7342H35.9893V19.7035L35.9855 19.6731L35.4893 19.7342ZM31.9214 12.3186L31.5875 12.6907L31.5875 12.6907L31.9214 12.3186ZM24.3893 8.92012L24.4417 8.42287L24.4155 8.42012H24.3893V8.92012ZM27.5607 22.8565V23.3565H28.0016L28.0568 22.9191L27.5607 22.8565ZM23.9929 22.8565L23.5182 23.0137L23.6317 23.3565H23.9929V22.8565ZM27.5607 20.9051L28.0507 20.8055L28.0507 20.8055L27.5607 20.9051ZM26.3714 18.5633L25.996 18.8935L25.996 18.8935L26.3714 18.5633ZM23.9929 17.0021L23.8632 17.485L23.8632 17.485L23.9929 17.0021ZM21.6143 17.0021L21.5058 16.514L21.1143 16.601L21.1143 17.0021L21.6143 17.0021ZM21.6143 21.2954L21.1143 21.2954L21.1143 21.8006L21.6195 21.7953L21.6143 21.2954ZM23.2 21.6857L22.9089 22.0922L22.9089 22.0922L23.2 21.6857ZM17.65 23.2468H17.15V23.3872L17.223 23.507L17.65 23.2468ZM17.65 17.0021H18.15V16.5021H17.65V17.0021ZM18.8393 25.1983L18.4123 25.4585L18.4709 25.5546L18.5649 25.6163L18.8393 25.1983ZM21.2179 26.7595L20.9435 27.1775L21.0684 27.2595H21.2179V26.7595ZM28.0608 26.7595L28.5486 26.8692L28.6857 26.2595H28.0608V26.7595ZM33.5071 30.2722L33.1564 29.9159L33.1564 29.9159L33.5071 30.2722ZM34.2449 26.7595V26.2595H33.6615L33.7509 26.8361L34.2449 26.7595ZM42.2286 26.7595H42.7286V26.2595H42.2286V26.7595ZM41.4357 36.1266L41.8216 36.4446L41.8216 36.4446L41.4357 36.1266ZM37.5849 37.2977L37.5866 36.7977L37.5861 36.7977L37.5849 37.2977ZM37.4714 37.2975L37.4726 36.7975H37.4714V37.2975ZM25.1821 37.2975H24.6821V37.7975H25.1821V37.2975ZM18.0464 37.2975V37.7975H18.5464V37.2975H18.0464ZM2.58571 36.1266L2.25391 36.5006L2.25391 36.5006L2.58571 36.1266ZM2.58571 18.9536L2.94162 19.3048L2.94162 19.3048L2.58571 18.9536ZM8.9287 25.9789L8.57792 25.6226L8.57792 25.6226L8.9287 25.9789ZM13.6858 25.9789L14.0366 25.6226L14.0366 25.6226L13.6858 25.9789ZM13.6858 30.6624L13.335 30.3061L13.335 30.3061L13.6858 30.6624ZM8.9287 30.6624L9.27949 30.3061L9.27949 30.3061L8.9287 30.6624ZM22.1143 4.90295V1H21.1143V4.90295H22.1143ZM26.0949 4.96618C24.5405 4.58217 23.0159 4.40295 21.6143 4.40295V5.40295C22.9326 5.40295 24.3767 5.57175 25.8551 5.93699L26.0949 4.96618ZM35.8666 10.8196C33.1213 7.66268 29.5225 5.81296 26.0949 4.96618L25.8551 5.93699C29.1194 6.74343 32.5246 8.50045 35.112 11.4758L35.8666 10.8196ZM39.9421 18.4568C39.3436 15.7098 38.0543 13.3353 35.8666 10.8196L35.112 11.4758C37.2149 13.894 38.4097 16.1209 38.965 18.6697L39.9421 18.4568ZM40.35 22.8565C40.35 21.2742 40.2405 19.8262 39.9421 18.4568L38.965 18.6697C39.2432 19.9465 39.35 21.318 39.35 22.8565H40.35ZM43.8143 22.3565H39.85V23.3565H43.8143V22.3565ZM43.3143 18.5633V22.8565H44.3143V18.5633H43.3143ZM38.306 7.98745C41.5161 11.218 42.6104 14.1125 43.3203 18.6407L44.3082 18.4859C43.5763 13.8166 42.4155 10.7045 39.0154 7.2826L38.306 7.98745ZM25.9001 1.49436C30.9365 2.2572 34.5857 4.24331 38.306 7.98745L39.0154 7.2826C35.1605 3.40305 31.3207 1.30398 26.0499 0.505639L25.9001 1.49436ZM21.6143 1.5H25.975V0.5H21.6143V1.5ZM22.1143 13.0992V8.92012H21.1143V13.0992H22.1143ZM24.3893 12.5992H21.6143V13.5992H24.3893V12.5992ZM29.5108 15.0985C28.0451 13.5389 26.5974 12.9389 24.4667 12.6052L24.3119 13.5931C26.2837 13.902 27.506 14.4255 28.7821 15.7833L29.5108 15.0985ZM31.6212 19.6486C31.4619 18.731 31.2877 17.9605 30.9719 17.2333C30.6531 16.4991 30.2005 15.8325 29.5108 15.0985L28.7821 15.7833C29.4097 16.4512 29.7906 17.0235 30.0547 17.6316C30.3218 18.2468 30.4801 18.922 30.6359 19.8197L31.6212 19.6486ZM31.6286 22.8565V19.7342H30.6286V22.8565H31.6286ZM35.4893 22.3565H31.1286V23.3565H35.4893V22.3565ZM34.9893 19.7342V22.8565H35.9893V19.7342H34.9893ZM31.5875 12.6907C32.7838 13.764 33.5314 14.7683 34.0313 15.8725C34.5343 16.9836 34.7996 18.2242 34.993 19.7953L35.9855 19.6731C35.7873 18.063 35.5064 16.7063 34.9423 15.4601C34.375 14.207 33.5345 13.0941 32.2553 11.9464L31.5875 12.6907ZM24.3369 9.41737C27.439 9.74405 29.4175 10.7438 31.5875 12.6907L32.2553 11.9464C29.9452 9.87375 27.7742 8.77383 24.4417 8.42287L24.3369 9.41737ZM21.6143 9.42012H24.3893V8.42012H21.6143V9.42012ZM27.5607 22.3565H23.9929V23.3565H27.5607V22.3565ZM27.0707 21.0046C27.1336 21.314 27.1368 21.7497 27.1182 22.137C27.1092 22.3247 27.0956 22.4906 27.0843 22.6093C27.0787 22.6686 27.0736 22.7157 27.07 22.7476C27.0683 22.7636 27.0668 22.7757 27.0659 22.7836C27.0654 22.7875 27.0651 22.7904 27.0649 22.7921C27.0648 22.793 27.0647 22.7936 27.0646 22.7939C27.0646 22.7941 27.0646 22.7942 27.0646 22.7942C27.0646 22.7942 27.0646 22.7942 27.0646 22.7941C27.0646 22.7941 27.0646 22.7941 27.0646 22.7941C27.0646 22.794 27.0646 22.794 27.5607 22.8565C28.0568 22.9191 28.0568 22.919 28.0568 22.919C28.0568 22.9189 28.0568 22.9189 28.0568 22.9188C28.0568 22.9187 28.0568 22.9186 28.0569 22.9185C28.0569 22.9182 28.0569 22.9178 28.057 22.9174C28.0571 22.9166 28.0572 22.9154 28.0574 22.914C28.0578 22.9112 28.0582 22.9072 28.0589 22.9021C28.0601 22.892 28.0618 22.8775 28.0638 22.859C28.068 22.8222 28.0736 22.7694 28.0798 22.7041C28.0922 22.5737 28.1071 22.3918 28.1171 22.1851C28.1364 21.7835 28.1397 21.2435 28.0507 20.8055L27.0707 21.0046ZM25.996 18.8935C26.3208 19.2628 26.5387 19.5631 26.6999 19.8767C26.8604 20.1887 26.9752 20.5346 27.0707 21.0046L28.0507 20.8055C27.9425 20.273 27.8027 19.8344 27.5893 19.4194C27.3768 19.0061 27.1019 18.6367 26.7469 18.2331L25.996 18.8935ZM23.8632 17.485C24.3585 17.618 24.717 17.78 25.0312 17.9932C25.3495 18.2094 25.6427 18.4918 25.996 18.8935L26.7469 18.2331C26.3694 17.8038 26.0118 17.4503 25.5928 17.1659C25.1696 16.8786 24.7042 16.6754 24.1225 16.5192L23.8632 17.485ZM21.6143 17.0021C21.7227 17.4902 21.7227 17.4902 21.7226 17.4902C21.7225 17.4902 21.7225 17.4903 21.7224 17.4903C21.7223 17.4903 21.7223 17.4903 21.7222 17.4903C21.7221 17.4903 21.7221 17.4903 21.7222 17.4903C21.7223 17.4903 21.7228 17.4902 21.7235 17.49C21.725 17.4897 21.7276 17.4892 21.7315 17.4884C21.7391 17.4868 21.7514 17.4842 21.7679 17.481C21.801 17.4746 21.8509 17.4653 21.9148 17.455C22.0428 17.4341 22.2252 17.4089 22.4388 17.3921C22.8742 17.3579 23.4039 17.3617 23.8632 17.485L24.1225 16.5192C23.5047 16.3533 22.8451 16.3571 22.3605 16.3952C22.1141 16.4146 21.9038 16.4436 21.7542 16.4679C21.6792 16.4801 21.619 16.4912 21.5767 16.4995C21.5555 16.5036 21.5388 16.507 21.5269 16.5095C21.5209 16.5108 21.5161 16.5118 21.5126 16.5125C21.5109 16.5129 21.5094 16.5132 21.5083 16.5135C21.5077 16.5136 21.5072 16.5137 21.5068 16.5138C21.5066 16.5138 21.5064 16.5139 21.5063 16.5139C21.5062 16.5139 21.5061 16.514 21.506 16.514C21.5059 16.514 21.5058 16.514 21.6143 17.0021ZM22.1143 21.2954L22.1143 17.0021L21.1143 17.0021L21.1143 21.2954L22.1143 21.2954ZM23.4911 21.2791C23.1104 21.0065 22.6148 20.8956 22.2691 20.8454C22.0868 20.8189 21.925 20.8064 21.8084 20.8006C21.7498 20.7977 21.702 20.7963 21.6679 20.7958C21.6508 20.7955 21.6372 20.7954 21.6273 20.7953C21.6223 20.7953 21.6183 20.7953 21.6152 20.7953C21.6137 20.7954 21.6124 20.7954 21.6114 20.7954C21.6109 20.7954 21.6105 20.7954 21.6101 20.7954C21.6099 20.7954 21.6097 20.7954 21.6095 20.7954C21.6095 20.7954 21.6094 20.7954 21.6093 20.7954C21.6092 20.7954 21.6091 20.7954 21.6143 21.2954C21.6195 21.7953 21.6194 21.7953 21.6193 21.7953C21.6193 21.7953 21.6192 21.7953 21.6191 21.7953C21.619 21.7953 21.6189 21.7953 21.6189 21.7953C21.6187 21.7953 21.6187 21.7953 21.6186 21.7953C21.6186 21.7953 21.6188 21.7953 21.6193 21.7953C21.6201 21.7953 21.6219 21.7953 21.6246 21.7953C21.63 21.7953 21.6389 21.7954 21.651 21.7956C21.6752 21.796 21.7119 21.797 21.7582 21.7993C21.8515 21.804 21.9811 21.814 22.1252 21.835C22.4324 21.8796 22.7297 21.9639 22.9089 22.0922L23.4911 21.2791ZM23.9929 22.8565C24.4675 22.6994 24.4675 22.6993 24.4675 22.6992C24.4674 22.6992 24.4674 22.699 24.4674 22.699C24.4673 22.6988 24.4673 22.6986 24.4672 22.6984C24.4671 22.698 24.4669 22.6976 24.4668 22.6971C24.4664 22.6962 24.4661 22.695 24.4656 22.6937C24.4647 22.691 24.4635 22.6875 24.462 22.6833C24.4591 22.675 24.4551 22.6637 24.4501 22.6498C24.4399 22.6221 24.4253 22.5838 24.4063 22.5374C24.3684 22.4449 24.3118 22.318 24.236 22.177C24.0901 21.9056 23.848 21.5347 23.4911 21.2791L22.9089 22.0922C23.0832 22.217 23.2375 22.4315 23.3552 22.6505C23.4112 22.7547 23.4533 22.8491 23.4811 22.9168C23.4949 22.9504 23.5049 22.9768 23.5111 22.9938C23.5142 23.0023 23.5164 23.0084 23.5175 23.0118C23.5181 23.0135 23.5185 23.0146 23.5186 23.0149C23.5186 23.015 23.5186 23.015 23.5186 23.0148C23.5185 23.0147 23.5185 23.0146 23.5184 23.0144C23.5184 23.0143 23.5184 23.0142 23.5183 23.014C23.5183 23.014 23.5183 23.0139 23.5183 23.0139C23.5182 23.0138 23.5182 23.0137 23.9929 22.8565ZM18.15 23.2468V17.0021H17.15V23.2468H18.15ZM19.2662 24.9381L18.077 22.9866L17.223 23.507L18.4123 25.4585L19.2662 24.9381ZM21.4922 26.3415L19.1136 24.7803L18.5649 25.6163L20.9435 27.1775L21.4922 26.3415ZM28.0608 26.2595H21.2179V27.2595H28.0608V26.2595ZM28.4571 27.9304C28.4571 27.7331 28.4946 27.1092 28.5486 26.8692L27.573 26.6498C27.4943 26.9996 27.4571 27.712 27.4571 27.9304H28.4571ZM29.1008 29.9159C28.563 29.3863 28.4571 28.5404 28.4571 27.9304H27.4571C27.4571 28.5772 27.5523 29.7947 28.3992 30.6285L29.1008 29.9159ZM31.1286 30.5527C30.1899 30.5527 29.6504 30.457 29.1008 29.9159L28.3992 30.6285C29.2343 31.4506 30.1089 31.5527 31.1286 31.5527V30.5527ZM33.1564 29.9159C32.6067 30.457 32.0672 30.5527 31.1286 30.5527V31.5527C32.1482 31.5527 33.0228 31.4506 33.8579 30.6285L33.1564 29.9159ZM33.8 27.9304C33.8 28.5899 33.6955 29.385 33.1564 29.9159L33.8579 30.6285C34.7034 29.796 34.8 28.6342 34.8 27.9304H33.8ZM33.7509 26.8361C33.7871 27.0702 33.8 27.6886 33.8 27.9304H34.8C34.8 27.7055 34.7893 27.007 34.739 26.6829L33.7509 26.8361ZM42.2286 26.2595H34.2449V27.2595H42.2286V26.2595ZM42.7286 33.3945V26.7595H41.7286V33.3945H42.7286ZM41.8216 36.4446C42.6502 35.439 42.7286 34.1927 42.7286 33.3945H41.7286C41.7286 34.1575 41.6414 35.0907 41.0498 35.8086L41.8216 36.4446ZM37.5832 37.7977C38.0158 37.7992 38.7812 37.8029 39.5685 37.6465C40.3485 37.4915 41.2281 37.1648 41.8216 36.4446L41.0498 35.8086C40.6702 36.2693 40.0587 36.5295 39.3736 36.6657C38.696 36.8003 38.0225 36.7992 37.5866 36.7977L37.5832 37.7977ZM37.4702 37.7975L37.5838 37.7977L37.5861 36.7977L37.4726 36.7975L37.4702 37.7975ZM25.1821 37.7975H37.4714V36.7975H25.1821V37.7975ZM21.6143 34.6751C22.4092 34.6751 23.1861 35.0101 23.7652 35.5246C24.3488 36.0431 24.6821 36.697 24.6821 37.2975H25.6821C25.6821 36.3368 25.1637 35.4295 24.4294 34.7771C23.6907 34.1207 22.6836 33.6751 21.6143 33.6751V34.6751ZM18.5464 37.2975C18.5464 36.697 18.8798 36.0431 19.4634 35.5246C20.0425 35.0101 20.8194 34.6751 21.6143 34.6751V33.6751C20.5449 33.6751 19.5379 34.1207 18.7992 34.7771C18.0649 35.4295 17.5464 36.3368 17.5464 37.2975H18.5464ZM6.55 37.7975H18.0464V36.7975H6.55V37.7975ZM2.25391 36.5006C3.59975 37.6945 4.94038 37.7975 6.55 37.7975V36.7975C4.98819 36.7975 3.97327 36.6891 2.91751 35.7525L2.25391 36.5006ZM0.5 32.2236C0.5 33.8783 0.876022 35.2783 2.25391 36.5006L2.91751 35.7525C1.81789 34.7771 1.5 33.6913 1.5 32.2236H0.5ZM0.5 22.4662V32.2236H1.5V22.4662H0.5ZM2.2298 18.6024C1.03808 19.8102 0.5 21.1487 0.5 22.4662H1.5C1.5 21.442 1.91209 20.3482 2.94162 19.3048L2.2298 18.6024ZM6.15357 16.5021C5.43667 16.5021 4.71031 16.7764 4.05359 17.1591C3.39129 17.5449 2.76235 18.0627 2.2298 18.6024L2.94162 19.3048C3.42676 18.8131 3.98711 18.3551 4.557 18.0231C5.13246 17.6878 5.68118 17.5021 6.15357 17.5021V16.5021ZM17.65 16.5021H6.15357V17.5021H17.65V16.5021ZM8.57792 25.6226C8.17381 26.0204 7.92961 26.4381 7.79292 26.9028C7.66021 27.354 7.63578 27.8282 7.63578 28.3207H8.63578C8.63578 27.8491 8.66162 27.4932 8.75229 27.185C8.83897 26.8902 8.99123 26.619 9.27949 26.3352L8.57792 25.6226ZM11.3072 24.6983C10.2876 24.6983 9.41301 24.8004 8.57792 25.6226L9.27949 26.3352C9.82911 25.7941 10.3687 25.6983 11.3072 25.6983V24.6983ZM14.0366 25.6226C13.2015 24.8004 12.3269 24.6983 11.3072 24.6983V25.6983C12.2458 25.6983 12.7854 25.7941 13.335 26.3352L14.0366 25.6226ZM14.9786 28.3207C14.9786 27.8283 14.9542 27.354 14.8215 26.9028C14.6849 26.4381 14.4407 26.0205 14.0366 25.6226L13.335 26.3352C13.6232 26.619 13.7755 26.8902 13.8622 27.185C13.9528 27.4932 13.9786 27.8491 13.9786 28.3207H14.9786ZM14.0366 31.0187C14.4407 30.6209 14.6849 30.2032 14.8215 29.7385C14.9542 29.2873 14.9786 28.8131 14.9786 28.3207H13.9786C13.9786 28.7922 13.9528 29.1481 13.8622 29.4564C13.7755 29.7511 13.6232 30.0224 13.335 30.3061L14.0366 31.0187ZM11.3072 31.943C12.3269 31.943 13.2015 31.8409 14.0366 31.0187L13.335 30.3061C12.7854 30.8473 12.2458 30.943 11.3072 30.943V31.943ZM8.57792 31.0187C9.41301 31.8409 10.2876 31.943 11.3072 31.943V30.943C10.3687 30.943 9.82911 30.8473 9.27949 30.3061L8.57792 31.0187ZM7.63578 28.3207C7.63578 28.8131 7.66021 29.2873 7.79292 29.7385C7.92961 30.2033 8.17381 30.6209 8.57792 31.0187L9.27949 30.3061C8.99123 30.0224 8.83897 29.7511 8.75229 29.4564C8.66162 29.1481 8.63578 28.7922 8.63578 28.3207H7.63578Z" fill="#283618"/>
</svg>
