<svg width="48" height="43" viewBox="0 0 48 43" fill="none" xmlns="http://www.w3.org/2000/svg">
<path d="M18.0287 41.981V1H22.3894V41.981H18.0287Z" fill="#BC6C25"/>
<path d="M25.9572 35.7363V6.85443H30.3179V35.7363H25.9572Z" fill="#BC6C25"/>
<path d="M34.6787 25.5886V17.7827H39.0394V25.5886H34.6787Z" fill="#BC6C25"/>
<path d="M42.2108 29.8819V13.0992H47.3644V29.8819H42.2108Z" fill="#BC6C25"/>
<path d="M14.4608 31.0527V13.0992H9.70366V31.0527H14.4608Z" fill="#BC6C25"/>
<path d="M6.1358 27.1498V17.7827H1.37866V27.1498H6.1358Z" fill="#BC6C25"/>
<path d="M18.0287 41.981V1H22.3894V41.981H18.0287Z" stroke="#283618"/>
<path d="M25.9572 35.7363V6.85443H30.3179V35.7363H25.9572Z" stroke="#283618"/>
<path d="M34.6787 25.5886V17.7827H39.0394V25.5886H34.6787Z" stroke="#283618"/>
<path d="M42.2108 29.8819V13.0992H47.3644V29.8819H42.2108Z" stroke="#283618"/>
<path d="M14.4608 31.0527V13.0992H9.70366V31.0527H14.4608Z" stroke="#283618"/>
<path d="M6.1358 27.1498V17.7827H1.37866V27.1498H6.1358Z" stroke="#283618"/>
</svg>
