<svg width="46" height="34" viewBox="0 0 46 34" fill="none" xmlns="http://www.w3.org/2000/svg">
<path d="M18.0104 16.4261C18.0104 14.1603 20.0696 12.1329 22.3711 12.1329C24.6726 12.1329 26.7319 14.1603 26.7319 16.4261C26.7319 18.692 24.6726 20.7194 22.3711 20.7194C20.0696 20.7194 18.0104 18.692 18.0104 16.4261Z" fill="#BC6C25"/>
<path d="M29.9039 9.40083C29.9039 9.40083 32.5766 13.4842 32.6789 16.4261C32.7911 19.654 29.9039 24.2321 29.9039 24.2321L33.0753 26.9641C33.0753 26.9641 36.748 20.7629 36.6432 16.4261C36.5452 12.3774 33.0753 6.66876 33.0753 6.66876L29.9039 9.40083Z" fill="#BC6C25"/>
<path d="M35.4539 3.93669C35.4539 3.93669 40.1581 11.2173 40.211 16.4261C40.2654 21.778 35.4539 29.3059 35.4539 29.3059L38.6253 32.8186C38.6253 32.8186 44.6804 23.2229 44.5717 16.4261C44.4676 9.91558 38.6253 0.814331 38.6253 0.814331L35.4539 3.93669Z" fill="#BC6C25"/>
<path d="M15.236 9.40083C15.236 9.40083 12.5633 13.4842 12.461 16.4261C12.3488 19.654 15.236 24.2321 15.236 24.2321L12.0646 26.9641C12.0646 26.9641 8.39183 20.7629 8.49671 16.4261C8.59462 12.3774 12.0646 6.66876 12.0646 6.66876L15.236 9.40083Z" fill="#BC6C25"/>
<path d="M9.686 3.93669C9.686 3.93669 4.98176 11.2173 4.92885 16.4261C4.87449 21.778 9.686 29.3059 9.686 29.3059L6.51457 32.8186C6.51457 32.8186 0.459378 23.223 0.568097 16.4261C0.672238 9.91557 6.51457 0.814331 6.51457 0.814331L9.686 3.93669Z" fill="#BC6C25"/>
<path d="M18.0104 16.4261C18.0104 14.1603 20.0696 12.1329 22.3711 12.1329C24.6726 12.1329 26.7319 14.1603 26.7319 16.4261C26.7319 18.692 24.6726 20.7194 22.3711 20.7194C20.0696 20.7194 18.0104 18.692 18.0104 16.4261Z" stroke="#283618"/>
<path d="M29.9039 9.40083C29.9039 9.40083 32.5766 13.4842 32.6789 16.4261C32.7911 19.654 29.9039 24.2321 29.9039 24.2321L33.0753 26.9641C33.0753 26.9641 36.748 20.7629 36.6432 16.4261C36.5452 12.3774 33.0753 6.66876 33.0753 6.66876L29.9039 9.40083Z" stroke="#283618"/>
<path d="M35.4539 3.93669C35.4539 3.93669 40.1581 11.2173 40.211 16.4261C40.2654 21.778 35.4539 29.3059 35.4539 29.3059L38.6253 32.8186C38.6253 32.8186 44.6804 23.2229 44.5717 16.4261C44.4676 9.91558 38.6253 0.814331 38.6253 0.814331L35.4539 3.93669Z" stroke="#283618"/>
<path d="M15.236 9.40083C15.236 9.40083 12.5633 13.4842 12.461 16.4261C12.3488 19.654 15.236 24.2321 15.236 24.2321L12.0646 26.9641C12.0646 26.9641 8.39183 20.7629 8.49671 16.4261C8.59462 12.3774 12.0646 6.66876 12.0646 6.66876L15.236 9.40083Z" stroke="#283618"/>
<path d="M9.686 3.93669C9.686 3.93669 4.98176 11.2173 4.92885 16.4261C4.87449 21.778 9.686 29.3059 9.686 29.3059L6.51457 32.8186C6.51457 32.8186 0.459378 23.223 0.568097 16.4261C0.672238 9.91557 6.51457 0.814331 6.51457 0.814331L9.686 3.93669Z" stroke="#283618"/>
</svg>
