<svg width="47" height="39" viewBox="0 0 47 39" fill="none" xmlns="http://www.w3.org/2000/svg">
<path d="M37.6929 19.8231H35.3143H32.5393C32.5393 19.8231 31.3047 19.9811 30.5572 20.6037C29.7644 21.2642 29.7643 22.9455 29.7643 22.9455V35.0447C29.7643 35.0447 29.9075 36.3791 30.5572 36.9961C31.3047 37.706 32.5393 37.7767 32.5393 37.7767H35.3143H37.6929C37.6929 37.7767 39.0042 37.7767 39.6751 36.9961C40.2136 36.3695 40.4679 35.0447 40.4679 35.0447V22.9455C40.4679 22.9455 40.3674 21.2854 39.6751 20.6037C38.9827 19.9221 37.6929 19.8231 37.6929 19.8231Z" fill="#BC6C25"/>
<path d="M42.4501 33.7605V23.7261H45.1415C45.1415 23.7261 45.751 23.8562 46.0179 24.1164C46.2639 24.3562 46.4143 24.897 46.4143 24.897V32.7029C46.4143 32.7029 46.2789 33.2596 46.0179 33.4835C45.7469 33.716 45.1415 33.7605 45.1415 33.7605H42.4501Z" fill="#BC6C25"/>
<path d="M34.125 14.7493C34.3019 15.9562 34.125 17.8717 34.125 17.8717H38.0893C38.0893 17.8717 38.5967 14.2483 38.0893 12.0172C36.8457 6.54821 33.8617 3.28222 28.575 1.8696C26.7759 1.38886 23.8179 1.4793 23.8179 1.4793C23.8179 1.4793 20.8599 1.38886 19.0607 1.8696C13.7741 3.28222 10.6952 6.63713 9.54648 12.0172C9.10061 14.1055 9.54648 17.8717 9.54648 17.8717H13.5108C13.5108 17.8717 13.3734 15.8076 13.5108 14.7493C14.1911 9.50976 18.34 5.38226 23.8179 5.38224C29.2958 5.38221 33.3264 9.2996 34.125 14.7493Z" fill="#BC6C25"/>
<path d="M9.94286 19.8231H12.3214H15.0964C15.0964 19.8231 16.3311 19.9811 17.0786 20.6037C17.8714 21.2642 17.8714 22.9455 17.8714 22.9455V35.0447C17.8714 35.0447 17.7283 36.3791 17.0786 36.9961C16.3311 37.706 15.0964 37.7767 15.0964 37.7767H12.3214H9.94286C9.94286 37.7767 8.63155 37.7767 7.96072 36.9961C7.4222 36.3695 7.16786 35.0447 7.16786 35.0447V22.9455C7.16786 22.9455 7.26837 21.2854 7.96072 20.6037C8.65307 19.9221 9.94286 19.8231 9.94286 19.8231Z" fill="#BC6C25"/>
<path d="M5.18572 33.7605V23.7261H2.49425C2.49425 23.7261 1.88479 23.8562 1.61786 24.1164C1.37188 24.3562 1.22144 24.897 1.22144 24.897V32.7029C1.22144 32.7029 1.35689 33.2596 1.61786 33.4835C1.88886 33.716 2.49425 33.7605 2.49425 33.7605H5.18572Z" fill="#BC6C25"/>
<path d="M37.6929 19.8231H35.3143H32.5393C32.5393 19.8231 31.3047 19.9811 30.5572 20.6037C29.7644 21.2642 29.7643 22.9455 29.7643 22.9455V35.0447C29.7643 35.0447 29.9075 36.3791 30.5572 36.9961C31.3047 37.706 32.5393 37.7767 32.5393 37.7767H35.3143H37.6929C37.6929 37.7767 39.0042 37.7767 39.6751 36.9961C40.2136 36.3695 40.4679 35.0447 40.4679 35.0447V22.9455C40.4679 22.9455 40.3674 21.2854 39.6751 20.6037C38.9827 19.9221 37.6929 19.8231 37.6929 19.8231Z" stroke="#283618"/>
<path d="M42.4501 33.7605V23.7261H45.1415C45.1415 23.7261 45.751 23.8562 46.0179 24.1164C46.2639 24.3562 46.4143 24.897 46.4143 24.897V32.7029C46.4143 32.7029 46.2789 33.2596 46.0179 33.4835C45.7469 33.716 45.1415 33.7605 45.1415 33.7605H42.4501Z" stroke="#283618"/>
<path d="M34.125 14.7493C34.3019 15.9562 34.125 17.8717 34.125 17.8717H38.0893C38.0893 17.8717 38.5967 14.2483 38.0893 12.0172C36.8457 6.54821 33.8617 3.28222 28.575 1.8696C26.7759 1.38886 23.8179 1.4793 23.8179 1.4793C23.8179 1.4793 20.8599 1.38886 19.0607 1.8696C13.7741 3.28222 10.6952 6.63713 9.54648 12.0172C9.10061 14.1055 9.54648 17.8717 9.54648 17.8717H13.5108C13.5108 17.8717 13.3734 15.8076 13.5108 14.7493C14.1911 9.50976 18.34 5.38226 23.8179 5.38224C29.2958 5.38221 33.3264 9.2996 34.125 14.7493Z" stroke="#283618"/>
<path d="M9.94286 19.8231H12.3214H15.0964C15.0964 19.8231 16.3311 19.9811 17.0786 20.6037C17.8714 21.2642 17.8714 22.9455 17.8714 22.9455V35.0447C17.8714 35.0447 17.7283 36.3791 17.0786 36.9961C16.3311 37.706 15.0964 37.7767 15.0964 37.7767H12.3214H9.94286C9.94286 37.7767 8.63155 37.7767 7.96072 36.9961C7.4222 36.3695 7.16786 35.0447 7.16786 35.0447V22.9455C7.16786 22.9455 7.26837 21.2854 7.96072 20.6037C8.65307 19.9221 9.94286 19.8231 9.94286 19.8231Z" stroke="#283618"/>
<path d="M5.18572 33.7605V23.7261H2.49425C2.49425 23.7261 1.88479 23.8562 1.61786 24.1164C1.37188 24.3562 1.22144 24.897 1.22144 24.897V32.7029C1.22144 32.7029 1.35689 33.2596 1.61786 33.4835C1.88886 33.716 2.49425 33.7605 2.49425 33.7605H5.18572Z" stroke="#283618"/>
</svg>
