<svg width="35" height="43" viewBox="0 0 35 43" fill="none" xmlns="http://www.w3.org/2000/svg">
<path fill-rule="evenodd" clip-rule="evenodd" d="M7.52865 29.8819C4.05714 30.3437 1.18579 32.6777 1.18579 36.1266C1.18579 39.5755 4.02719 42.2668 7.52865 42.3713C10.1387 42.4492 14.2679 39.4694 14.2679 36.1266V34.1751V19.7342L30.1251 14.6603V22.0759C30.1251 22.0759 28.9092 21.9682 28.1429 22.0759C24.8918 22.5332 22.1965 25.0874 22.1965 28.3207C22.1965 31.554 24.8605 34.0709 28.1429 34.1751C30.6757 34.2555 34.4858 30.9788 34.4858 27.9304V26.7595V2.56118C34.2215 1.91069 33.4551 1 32.5036 1C31.5522 1 17.5715 5.94374 10.7001 8.41561C10.4358 8.54571 9.82793 8.96203 9.51079 9.5865C9.19365 10.211 9.37865 23.3769 9.51079 29.8819C9.51079 29.8819 8.29575 29.7798 7.52865 29.8819ZM13.8714 10.978L30.5214 5.68354V10.1635L13.8714 15.0506V10.978Z" fill="#BC6C25"/>
<path d="M7.52865 29.8819L7.46271 29.3862L7.46271 29.3862L7.52865 29.8819ZM7.52865 42.3713L7.54356 41.8715L7.54356 41.8715L7.52865 42.3713ZM14.2679 19.7342L14.1156 19.258L13.7679 19.3692V19.7342H14.2679ZM30.1251 14.6603H30.6251V13.9754L29.9727 14.1841L30.1251 14.6603ZM30.1251 22.0759L30.0809 22.574L30.6251 22.6222V22.0759H30.1251ZM28.1429 22.0759L28.0733 21.5808L28.0733 21.5808L28.1429 22.0759ZM28.1429 34.1751L28.1271 34.6749L28.1271 34.6749L28.1429 34.1751ZM34.4858 2.56118H34.9858V2.46349L34.949 2.37298L34.4858 2.56118ZM10.7001 8.41561L10.5308 7.94513L10.5044 7.95463L10.4792 7.96702L10.7001 8.41561ZM9.51079 9.5865L9.95659 9.8129L9.95659 9.8129L9.51079 9.5865ZM9.51079 29.8819L9.46894 30.3801L10.022 30.4266L10.0107 29.8717L9.51079 29.8819ZM30.5214 5.68354H31.0214V4.99988L30.3699 5.20705L30.5214 5.68354ZM13.8714 10.978L13.7199 10.5015L13.3714 10.6123V10.978H13.8714ZM30.5214 10.1635L30.6622 10.6432L31.0214 10.5378V10.1635H30.5214ZM13.8714 15.0506H13.3714V15.7185L14.0122 15.5304L13.8714 15.0506ZM1.68579 36.1266C1.68579 33.0132 4.27705 30.8189 7.59459 30.3775L7.46271 29.3862C3.83723 29.8686 0.685791 32.3422 0.685791 36.1266H1.68579ZM7.54356 41.8715C4.28537 41.7743 1.68579 39.2789 1.68579 36.1266H0.685791C0.685791 39.872 3.76902 42.7594 7.51374 42.8711L7.54356 41.8715ZM13.7679 36.1266C13.7679 37.594 12.8527 39.0478 11.5535 40.1505C10.2508 41.2561 8.68252 41.9055 7.54356 41.8715L7.51374 42.8711C8.98483 42.915 10.7861 42.1134 12.2006 40.9129C13.6185 39.7095 14.7679 38.002 14.7679 36.1266H13.7679ZM13.7679 34.1751V36.1266H14.7679V34.1751H13.7679ZM13.7679 19.7342V34.1751H14.7679V19.7342H13.7679ZM29.9727 14.1841L14.1156 19.258L14.4203 20.2104L30.2775 15.1366L29.9727 14.1841ZM30.6251 22.0759V14.6603H29.6251V22.0759H30.6251ZM28.2126 22.5711C28.5505 22.5235 29.0099 22.522 29.4045 22.5352C29.5977 22.5418 29.768 22.5515 29.8898 22.5597C29.9506 22.5637 29.9991 22.5674 30.0321 22.57C30.0486 22.5713 30.0611 22.5723 30.0694 22.573C30.0736 22.5734 30.0766 22.5736 30.0786 22.5738C30.0795 22.5739 30.0802 22.5739 30.0806 22.574C30.0808 22.574 30.0809 22.574 30.081 22.574C30.081 22.574 30.081 22.574 30.081 22.574C30.081 22.574 30.081 22.574 30.081 22.574C30.081 22.574 30.0809 22.574 30.1251 22.0759C30.1692 21.5779 30.1692 21.5779 30.1691 21.5779C30.1691 21.5779 30.1691 21.5779 30.169 21.5779C30.1689 21.5779 30.1688 21.5779 30.1687 21.5779C30.1685 21.5778 30.1682 21.5778 30.1678 21.5778C30.167 21.5777 30.1659 21.5776 30.1646 21.5775C30.1619 21.5773 30.158 21.5769 30.1531 21.5765C30.1431 21.5757 30.1289 21.5745 30.1106 21.5731C30.0741 21.5702 30.0216 21.5663 29.9565 21.5619C29.8264 21.5532 29.6448 21.5428 29.4382 21.5358C29.0333 21.5222 28.5016 21.5206 28.0733 21.5808L28.2126 22.5711ZM22.6965 28.3207C22.6965 25.3884 25.1532 23.0014 28.2126 22.5711L28.0733 21.5808C24.6304 22.0651 21.6965 24.7863 21.6965 28.3207H22.6965ZM28.1588 33.6754C25.118 33.5788 22.6965 31.2567 22.6965 28.3207H21.6965C21.6965 31.8513 24.603 34.5629 28.1271 34.6749L28.1588 33.6754ZM33.9858 27.9304C33.9858 29.2599 33.1408 30.7185 31.9221 31.8613C30.6985 33.0088 29.2361 33.7096 28.1588 33.6754L28.1271 34.6749C29.5826 34.7211 31.2916 33.8236 32.6062 32.5908C33.9258 31.3533 34.9858 29.6492 34.9858 27.9304H33.9858ZM33.9858 26.7595V27.9304H34.9858V26.7595H33.9858ZM33.9858 2.56118V26.7595H34.9858V2.56118H33.9858ZM32.5036 1.5C32.8157 1.5 33.1312 1.65049 33.4181 1.90843C33.7048 2.16628 33.9186 2.49361 34.0226 2.74938L34.949 2.37298C34.7886 1.97826 34.4872 1.525 34.0867 1.16488C33.6864 0.804851 33.143 0.5 32.5036 0.5V1.5ZM10.8693 8.8861C14.3039 7.65058 19.5148 5.79745 23.9851 4.25346C26.2206 3.48133 28.2685 2.78738 29.8157 2.2868C30.5898 2.03635 31.2347 1.83553 31.7137 1.69777C31.9536 1.62877 32.1471 1.57695 32.2921 1.54281C32.4558 1.50427 32.5111 1.5 32.5036 1.5V0.5C32.3773 0.5 32.2119 0.534349 32.0629 0.569434C31.8952 0.608921 31.6841 0.665734 31.4372 0.736737C30.9427 0.878995 30.2856 1.08372 29.5078 1.33536C27.9513 1.83898 25.8961 2.53546 23.6586 3.30825C19.1829 4.8541 13.9677 6.70877 10.5308 7.94513L10.8693 8.8861ZM9.95659 9.8129C10.2085 9.31685 10.7156 8.96526 10.9209 8.8642L10.4792 7.96702C10.156 8.12616 9.44735 8.6072 9.06499 9.36009L9.95659 9.8129ZM10.0107 29.8717C9.94465 26.6207 9.86541 21.7056 9.8423 17.5262C9.83074 15.4361 9.83325 13.5331 9.85834 12.1152C9.87089 11.4055 9.88903 10.8224 9.91348 10.3999C9.92575 10.188 9.93924 10.0232 9.95344 9.90602C9.96059 9.84709 9.96712 9.8069 9.97223 9.7821C9.97966 9.74604 9.97861 9.76954 9.95659 9.8129L9.06499 9.36009C9.02315 9.44248 9.00326 9.52951 8.9928 9.5803C8.98002 9.64234 8.9696 9.71233 8.96071 9.78572C8.94284 9.93315 8.92792 10.1217 8.91515 10.3422C8.88954 10.7847 8.87113 11.3834 8.85849 12.0975C8.8332 13.5271 8.83075 15.4393 8.84232 17.5318C8.86546 21.7178 8.94479 26.6381 9.01089 29.892L10.0107 29.8717ZM7.59459 30.3775C7.93533 30.3322 8.39669 30.3307 8.79143 30.3433C8.98489 30.3495 9.15539 30.3588 9.27735 30.3665C9.33825 30.3704 9.38683 30.3738 9.41987 30.3763C9.43639 30.3775 9.44901 30.3785 9.45732 30.3792C9.46148 30.3795 9.46456 30.3797 9.46651 30.3799C9.46749 30.38 9.46819 30.38 9.46859 30.3801C9.4688 30.3801 9.46893 30.3801 9.46898 30.3801C9.46901 30.3801 9.46902 30.3801 9.46902 30.3801C9.46901 30.3801 9.46899 30.3801 9.46899 30.3801C9.46897 30.3801 9.46894 30.3801 9.51079 29.8819C9.55264 29.3836 9.5526 29.3836 9.55256 29.3836C9.55254 29.3836 9.55249 29.3836 9.55245 29.3836C9.55237 29.3836 9.55227 29.3836 9.55215 29.3836C9.55192 29.3836 9.55161 29.3835 9.55122 29.3835C9.55046 29.3834 9.5494 29.3833 9.54805 29.3832C9.54536 29.383 9.54152 29.3827 9.53659 29.3823C9.52674 29.3815 9.5125 29.3804 9.4943 29.3791C9.45789 29.3763 9.40556 29.3726 9.34056 29.3685C9.21073 29.3603 9.02952 29.3504 8.82334 29.3438C8.41878 29.3309 7.88907 29.3295 7.46271 29.3862L7.59459 30.3775ZM30.3699 5.20705L13.7199 10.5015L14.0229 11.4545L30.6729 6.16003L30.3699 5.20705ZM31.0214 10.1635V5.68354H30.0214V10.1635H31.0214ZM14.0122 15.5304L30.6622 10.6432L30.3806 9.6837L13.7306 14.5709L14.0122 15.5304ZM13.3714 10.978V15.0506H14.3714V10.978H13.3714ZM14.0243 15.5267L14.0251 15.5264L13.7196 14.5743L13.7187 14.5746L14.0243 15.5267Z" fill="#283618"/>
</svg>
